<svg width="19" height="19" viewBox="0 0 19 19" fill="none" xmlns="http://www.w3.org/2000/svg">
<path d="M3.36031 1.81001C2.80031 1.81001 2.32031 2.01001 1.92031 2.41001C1.52031 2.81001 1.32031 3.30001 1.32031 3.88001C1.32031 4.46001 1.52031 4.95001 1.92031 5.35001C2.32031 5.75001 2.80031 5.95001 3.36031 5.95001C3.92031 5.95001 4.40031 5.75001 4.80031 5.35001C5.20031 4.95001 5.40031 4.46001 5.40031 3.88001C5.40031 3.30001 5.20031 2.81001 4.80031 2.41001C4.40031 2.01001 3.92031 1.81001 3.36031 1.81001ZM3.36031 2.95001C3.60031 2.95001 3.82031 3.04001 4.02031 3.22001C4.22031 3.40001 4.32031 3.62001 4.32031 3.88001C4.32031 4.14001 4.22031 4.36001 4.02031 4.54001C3.82031 4.72001 3.60031 4.81001 3.36031 4.81001C3.12031 4.81001 2.90031 4.72001 2.70031 4.54001C2.50031 4.36001 2.40031 4.14001 2.40031 3.88001C2.40031 3.62001 2.50031 3.40001 2.70031 3.22001C2.90031 3.04001 3.12031 2.95001 3.36031 2.95001ZM3.36031 12.31C2.80031 12.31 2.32031 12.51 1.92031 12.91C1.52031 13.31 1.32031 13.8 1.32031 14.38C1.32031 14.96 1.52031 15.45 1.92031 15.85C2.32031 16.25 2.80031 16.45 3.36031 16.45C3.92031 16.45 4.40031 16.25 4.80031 15.85C5.20031 15.45 5.40031 14.96 5.40031 14.38C5.40031 13.8 5.20031 13.31 4.80031 12.91C4.40031 12.51 3.92031 12.31 3.36031 12.31ZM3.36031 13.45C3.60031 13.45 3.82031 13.54 4.02031 13.72C4.22031 13.9 4.32031 14.12 4.32031 14.38C4.32031 14.64 4.22031 14.86 4.02031 15.04C3.82031 15.22 3.60031 15.31 3.36031 15.31C3.12031 15.31 2.90031 15.22 2.70031 15.04C2.50031 14.86 2.40031 14.64 2.40031 14.38C2.40031 14.12 2.50031 13.9 2.70031 13.72C2.90031 13.54 3.12031 13.45 3.36031 13.45ZM9.36031 1.81001C8.80031 1.81001 8.32031 2.01001 7.92031 2.41001C7.52031 2.81001 7.32031 3.30001 7.32031 3.88001C7.32031 4.46001 7.52031 4.95001 7.92031 5.35001C8.32031 5.75001 8.80031 5.95001 9.36031 5.95001C9.92031 5.95001 10.4003 5.75001 10.8003 5.35001C11.2003 4.95001 11.4003 4.46001 11.4003 3.88001C11.4003 3.30001 11.2003 2.81001 10.8003 2.41001C10.4003 2.01001 9.92031 1.81001 9.36031 1.81001ZM9.36031 2.95001C9.60031 2.95001 9.82031 3.04001 10.0203 3.22001C10.2203 3.40001 10.3203 3.62001 10.3203 3.88001C10.3203 4.14001 10.2203 4.36001 10.0203 4.54001C9.82031 4.72001 9.60031 4.81001 9.36031 4.81001C9.12031 4.81001 8.90031 4.72001 8.70031 4.54001C8.50031 4.36001 8.40031 4.14001 8.40031 3.88001C8.40031 3.62001 8.50031 3.40001 8.70031 3.22001C8.90031 3.04001 9.12031 2.95001 9.36031 2.95001ZM9.36031 12.31C8.80031 12.31 8.32031 12.51 7.92031 12.91C7.52031 13.31 7.32031 13.8 7.32031 14.38C7.32031 14.96 7.52031 15.45 7.92031 15.85C8.32031 16.25 8.80031 16.45 9.36031 16.45C9.92031 16.45 10.4003 16.25 10.8003 15.85C11.2003 15.45 11.4003 14.96 11.4003 14.38C11.4003 13.8 11.2003 13.31 10.8003 12.91C10.4003 12.51 9.92031 12.31 9.36031 12.31ZM9.36031 13.45C9.60031 13.45 9.82031 13.54 10.0203 13.72C10.2203 13.9 10.3203 14.12 10.3203 14.38C10.3203 14.64 10.2203 14.86 10.0203 15.04C9.82031 15.22 9.60031 15.31 9.36031 15.31C9.12031 15.31 8.90031 15.22 8.70031 15.04C8.50031 14.86 8.40031 14.64 8.40031 14.38C8.40031 14.12 8.50031 13.9 8.70031 13.72C8.90031 13.54 9.12031 13.45 9.36031 13.45ZM15.3603 1.81001C14.8003 1.81001 14.3203 2.01001 13.9203 2.41001C13.5203 2.81001 13.3203 3.30001 13.3203 3.88001C13.3203 4.46001 13.5203 4.95001 13.9203 5.35001C14.3203 5.75001 14.8003 5.95001 15.3603 5.95001C15.9203 5.95001 16.4003 5.75001 16.8003 5.35001C17.2003 4.95001 17.4003 4.46001 17.4003 3.88001C17.4003 3.30001 17.2003 2.81001 16.8003 2.41001C16.4003 2.01001 15.9203 1.81001 15.3603 1.81001ZM15.3603 2.95001C15.6003 2.95001 15.8203 3.04001 16.0203 3.22001C16.2203 3.40001 16.3203 3.62001 16.3203 3.88001C16.3203 4.14001 16.2203 4.36001 16.0203 4.54001C15.8203 4.72001 15.6003 4.81001 15.3603 4.81001C15.1203 4.81001 14.9003 4.72001 14.7003 4.54001C14.5003 4.36001 14.4003 4.14001 14.4003 3.88001C14.4003 3.62001 14.5003 3.40001 14.7003 3.22001C14.9003 3.04001 15.1203 2.95001 15.3603 2.95001ZM15.3603 12.31C14.8003 12.31 14.3203 12.51 13.9203 12.91C13.5203 13.31 13.3203 13.8 13.3203 14.38C13.3203 14.96 13.5203 15.45 13.9203 15.85C14.3203 16.25 14.8003 16.45 15.3603 16.45C15.9203 16.45 16.4003 16.25 16.8003 15.85C17.2003 15.45 17.4003 14.96 17.4003 14.38C17.4003 13.8 17.2003 13.31 16.8003 12.91C16.4003 12.51 15.9203 12.31 15.3603 12.31ZM15.3603 13.45C15.6003 13.45 15.8203 13.54 16.0203 13.72C16.2203 13.9 16.3203 14.12 16.3203 14.38C16.3203 14.64 16.2203 14.86 16.0203 15.04C15.8203 15.22 15.6003 15.31 15.3603 15.31C15.1203 15.31 14.9003 15.22 14.7003 15.04C14.5003 14.86 14.4003 14.64 14.4003 14.38C14.4003 14.12 14.5003 13.9 14.7003 13.72C14.9003 13.54 15.1203 13.45 15.3603 13.45ZM2.82031 5.35001V12.85C2.82031 13.01 2.87031 13.15 2.97031 13.27C3.07031 13.39 3.20031 13.45 3.36031 13.45C3.52031 13.45 3.65031 13.39 3.75031 13.27C3.85031 13.15 3.90031 13.03 3.90031 12.91V5.35001C3.90031 5.23001 3.85031 5.11001 3.75031 4.99001C3.65031 4.87001 3.52031 4.81001 3.36031 4.81001C3.20031 4.81001 3.07031 4.87001 2.97031 4.99001C2.87031 5.11001 2.82031 5.23001 2.82031 5.35001ZM8.82031 5.35001V12.85C8.82031 13.01 8.87031 13.15 8.97031 13.27C9.07031 13.39 9.20031 13.45 9.36031 13.45C9.52031 13.45 9.65031 13.39 9.75031 13.27C9.85031 13.15 9.90031 13.03 9.90031 12.91V5.35001C9.90031 5.23001 9.85031 5.11001 9.75031 4.99001C9.65031 4.87001 9.52031 4.81001 9.36031 4.81001C9.20031 4.81001 9.07031 4.87001 8.97031 4.99001C8.87031 5.11001 8.82031 5.23001 8.82031 5.35001ZM14.8203 5.35001V8.35001C14.8203 8.43001 14.8003 8.49001 14.7603 8.53001C14.7203 8.57001 14.6803 8.59001 14.6403 8.59001H3.36031C3.20031 8.59001 3.07031 8.64001 2.97031 8.74001C2.87031 8.84001 2.82031 8.97001 2.82031 9.13001C2.82031 9.29001 2.87031 9.42001 2.97031 9.52001C3.07031 9.62001 3.20031 9.67001 3.36031 9.67001H14.6403C15.0003 9.67001 15.3003 9.55001 15.5403 9.31001C15.7803 9.07001 15.9003 8.75001 15.9003 8.35001V5.41001C15.9003 5.25001 15.8503 5.11001 15.7503 4.99001C15.6503 4.87001 15.5203 4.81001 15.3603 4.81001C15.2003 4.81001 15.0703 4.87001 14.9703 4.99001C14.8703 5.11001 14.8203 5.23001 14.8203 5.35001Z" fill="white"/>
</svg>
