<svg width="19" height="19" viewBox="0 0 19 19" fill="none" xmlns="http://www.w3.org/2000/svg">
<g clip-path="url(#clip0_5_1941)">
<path d="M18.9492 10.75C18.9492 12.79 18.3492 14.61 17.1492 16.21C17.0292 16.37 16.8692 16.46 16.6692 16.48C16.4692 16.5 16.2892 16.45 16.1292 16.33C15.9692 16.21 15.8792 16.06 15.8592 15.88C15.8392 15.7 15.8892 15.53 16.0092 15.37C17.0492 14.01 17.5692 12.47 17.5692 10.75C17.5692 9.39003 17.2292 8.13003 16.5492 6.97003C15.8692 5.81003 14.9392 4.89003 13.7592 4.21003C12.5792 3.53003 11.3092 3.19003 9.94922 3.19003C8.58922 3.19003 7.31922 3.53003 6.13922 4.21003C4.95922 4.89003 4.02922 5.81003 3.34922 6.97003C2.66922 8.13003 2.32922 9.39003 2.32922 10.75C2.32922 12.47 2.84922 14.01 3.88922 15.37C4.00922 15.53 4.05922 15.7 4.03922 15.88C4.01922 16.06 3.92922 16.21 3.76922 16.33C3.60922 16.45 3.42922 16.5 3.22922 16.48C3.02922 16.46 2.86922 16.37 2.74922 16.21C1.54922 14.61 0.949219 12.79 0.949219 10.75C0.949219 9.15003 1.34922 7.66003 2.14922 6.28003C2.94922 4.90003 4.03922 3.81003 5.41922 3.01003C6.79922 2.21003 8.30922 1.81003 9.94922 1.81003C11.5892 1.81003 13.0992 2.21003 14.4792 3.01003C15.8592 3.81003 16.9492 4.90003 17.7492 6.28003C18.5492 7.66003 18.9492 9.15003 18.9492 10.75ZM14.3892 6.55003C14.5492 6.67003 14.6292 6.83003 14.6292 7.03003C14.6292 7.23003 14.5492 7.39003 14.3892 7.51003L12.1092 9.85003C12.3092 10.21 12.4092 10.59 12.4092 10.99C12.4092 11.67 12.1692 12.25 11.6892 12.73C11.2092 13.21 10.6292 13.45 9.94922 13.45C9.26922 13.45 8.68922 13.21 8.20922 12.73C7.72922 12.25 7.48922 11.67 7.48922 10.99C7.48922 10.31 7.72922 9.73003 8.20922 9.25003C8.68922 8.77003 9.26922 8.53003 9.94922 8.53003C10.3492 8.53003 10.7292 8.63003 11.0892 8.83003L13.4292 6.55003C13.5492 6.39003 13.7092 6.31003 13.9092 6.31003C14.1092 6.31003 14.2692 6.39003 14.3892 6.55003ZM11.0292 10.99C11.0292 10.71 10.9192 10.47 10.6992 10.27C10.4792 10.07 10.2292 9.97003 9.94922 9.97003C9.66922 9.97003 9.41922 10.07 9.19922 10.27C8.97922 10.47 8.86922 10.71 8.86922 10.99C8.86922 11.27 8.97922 11.52 9.19922 11.74C9.41922 11.96 9.66922 12.07 9.94922 12.07C10.2292 12.07 10.4792 11.96 10.6992 11.74C10.9192 11.52 11.0292 11.27 11.0292 10.99Z" fill="white"/>
</g>
<defs>
<clipPath id="clip0_5_1941">
<rect width="18" height="18" fill="white" transform="matrix(1 0 0 -1 0.949219 18.13)"/>
</clipPath>
</defs>
</svg>
