<svg width="19" height="19" viewBox="0 0 19 19" fill="none" xmlns="http://www.w3.org/2000/svg">
<g clip-path="url(#clip0_5_1944)">
<path d="M10.9877 3.49001C10.9877 3.33001 10.9377 3.20001 10.8377 3.10001C10.7377 3 10.6077 2.95001 10.4477 2.95001H4.80766C4.64766 2.95001 4.51766 3 4.41766 3.10001C4.31766 3.20001 4.26766 3.33001 4.26766 3.49001V7.99001C4.26766 8.15001 4.31766 8.29 4.41766 8.41001C4.51766 8.53001 4.64766 8.59 4.80766 8.59H10.4477C10.6077 8.59 10.7377 8.53001 10.8377 8.41001C10.9377 8.29 10.9877 8.15001 10.9877 7.99001V3.49001ZM9.84766 7.45001H5.34766V4.09H9.84766V7.45001ZM17.4677 4.09L15.1877 3.01C15.0677 2.93001 14.9277 2.91001 14.7677 2.95001C14.6077 2.99001 14.4977 3.08001 14.4377 3.22001C14.3777 3.36001 14.3677 3.51 14.4077 3.67C14.4477 3.83001 14.5477 3.93001 14.7077 3.97001L15.5477 4.45001L15.4877 4.63C15.4877 4.99001 15.5977 5.31001 15.8177 5.59C16.0377 5.87001 16.3077 6.07001 16.6277 6.19001V13.03C16.6277 13.19 16.5677 13.33 16.4477 13.45C16.3277 13.57 16.1977 13.63 16.0577 13.63C15.9177 13.63 15.7877 13.57 15.6677 13.45C15.5477 13.33 15.4877 13.19 15.4877 13.03V8.53001C15.4877 7.89001 15.2577 7.31001 14.7977 6.79C14.3377 6.27001 13.8277 5.95001 13.2677 5.83V2.35001C13.2677 1.75001 13.0477 1.23001 12.6077 0.790005C12.1677 0.350006 11.6477 0.130005 11.0477 0.130005H4.26766C3.66766 0.130005 3.13766 0.350006 2.67766 0.790005C2.21766 1.23001 1.98766 1.75001 1.98766 2.35001V14.95L1.20766 15.37C0.967656 15.49 0.847656 15.65 0.847656 15.85V17.53C0.847656 17.69 0.907656 17.83 1.02766 17.95C1.14766 18.07 1.28766 18.13 1.44766 18.13H13.8077C13.9677 18.13 14.0977 18.07 14.1977 17.95C14.2977 17.83 14.3477 17.69 14.3477 17.53V15.85C14.3477 15.65 14.2477 15.49 14.0477 15.37L13.2677 14.95V6.97001C13.5477 7.09 13.7977 7.3 14.0177 7.60001C14.2377 7.90001 14.3477 8.21 14.3477 8.53001V13.03C14.3477 13.51 14.5177 13.92 14.8577 14.26C15.1977 14.6 15.5977 14.77 16.0577 14.77C16.5177 14.77 16.9177 14.6 17.2577 14.26C17.5977 13.92 17.7677 13.51 17.7677 13.03V4.63C17.7677 4.39001 17.6677 4.21 17.4677 4.09ZM13.2677 16.99H1.98766V16.21L2.82766 15.79C3.02766 15.71 3.12766 15.55 3.12766 15.31V2.35001C3.12766 2.07001 3.23766 1.82001 3.45766 1.60001C3.67766 1.38 3.94766 1.27001 4.26766 1.27001H11.0477C11.3277 1.27001 11.5777 1.38 11.7977 1.60001C12.0177 1.82001 12.1277 2.07001 12.1277 2.35001V15.31C12.1277 15.55 12.2277 15.71 12.4277 15.79L13.2677 16.21V16.99Z" fill="white"/>
</g>
<defs>
<clipPath id="clip0_5_1944">
<rect width="18" height="18" fill="white" transform="matrix(1 0 0 -1 0.308594 18.13)"/>
</clipPath>
</defs>
</svg>
